{"title":"Blue.Jasmine.2013.DVDScr.XVID.AC3.HQ.Hive-CM8","uid":9438219,"size":1455071725,"categoryP":"video","categoryS":"movies","magnet":"?xt=urn:btih:b023d4fcace0a060058a036c1c9277541e5e1da2&amp;dn=Blue.Jasmine.2013.DVDScr.XVID.AC3.HQ.Hive-CM8&amp;tr=udp%3A%2F%2Ftracker.openbittorrent.com%3A80&amp;tr=udp%3A%2F%2Fopen.demonii.com%3A1337&amp;tr=udp%3A%2F%2Ftracker.coppersurfer.tk%3A6969&amp;tr=udp%3A%2F%2Fexodus.desync.com%3A6969","seeders":2,"leechers":0,"uploader":"reloader786","files":-1,"time":1388946198,"description":"INFO: http://ewebfire.com/en/movie/160588/Blue+Jasmine-2013\n\nScreen: &lt;a href=&quot;\nhttp://imgplanet.net/img-52c9919a9b3c1.html&quot; rel=&quot;nofollow&quot; target=&quot;_NEW&quot;&gt;\nhttp://imgplanet.net/img-52c9919a9b3c1.html&lt;/a&gt; &lt;a href=&quot;\nhttp://imgplanet.net/img-52c991a44e569.html&quot; rel=&quot;nofollow&quot; target=&quot;_NEW&quot;&gt;\nhttp://imgplanet.net/img-52c991a44e569.html&lt;/a&gt; &lt;a href=&quot;\nhttp://imgplanet.net/img-52c991ab8cf80.html&quot; rel=&quot;nofollow&quot; target=&quot;_NEW&quot;&gt;\nhttp://imgplanet.net/img-52c991ab8cf80.html&lt;/a&gt; &lt;a href=&quot;\nhttp://imgplanet.net/img-52c991b14ddb4.html&quot; rel=&quot;nofollow&quot; target=&quot;_NEW&quot;&gt;\nhttp://imgplanet.net/img-52c991b14ddb4.html&lt;/a&gt;\n\nSample: yes included\n*****************************************\nGeneral\nFormat : AVI\nFormat/Info : Audio Video Interleave\nFile size : 1.34 GiB\nDuration : 1h 38mn\nOverall bit rate : 1 947 Kbps\nWriting application : Nandub v1.0rc2\nWriting library : Nandub build 1853/release\n**********************************************\nVideo\nID : 0\nFormat : MPEG-4 Visual\nFormat profile : Advanced Simple@L5\nFormat settings, BVOP : 2\nFormat settings, QPel : Yes\nFormat settings, GMC : No warppoints\nFormat settings, Matrix : Default (H.263)\nMuxing mode : Packed bitstream\nCodec ID : XVID\nCodec ID/Hint : XviD\nDuration : 1h 38mn\nBit rate : 1 490 Kbps\nWidth : 720 pixels\nHeight : 304 pixels\nDisplay aspect ratio : 2.35:1\nFrame rate : 23.976 fps\nColor space : YUV\nChroma subsampling : 4:2:0\nBit depth : 8 bits\nScan type : Progressive\nCompression mode : Lossy\nBits/(Pixel*Frame) : 0.284\nStream size : 1.02 GiB (77%)\nWriting library : XviD 1.2.1 (UTC 2008-12-04)\n**********************************************\nAudio\nID : 1\nFormat : AC-3\nFormat/Info : Audio Coding 3\nMode extension : CM (complete main)\nFormat settings, Endianness : Big\nCodec ID : 2000\nDuration : 1h 38mn\nBit rate mode : Constant\nBit rate : 448 Kbps\nChannel(s) : 6 channels\nChannel positions : Front: L C R, Side: L R, LFE\nSampling rate : 48.0 KHz\nBit depth : 16 bits\nCompression mode : Lossy\nStream size : 315 MiB (23%)\nAlignment : Split accross interleaves\nInterleave, duration : 42 ms (1.00 video frame)\nInterleave, preload duration : 500 ms\n\n","torrent":{"xt":"urn:btih:b023d4fcace0a060058a036c1c9277541e5e1da2","amp;dn":"Blue.Jasmine.2013.DVDScr.XVID.AC3.HQ.Hive-CM8","amp;tr":["udp%3A%2F%2Ftracker.openbittorrent.com%3A80","udp%3A%2F%2Fopen.demonii.com%3A1337","udp%3A%2F%2Ftracker.coppersurfer.tk%3A6969","udp%3A%2F%2Fexodus.desync.com%3A6969"],"infoHash":"b023d4fcace0a060058a036c1c9277541e5e1da2","infoHashBuffer":{"type":"Buffer","data":[176,35,212,252,172,224,160,96,5,138,3,108,28,146,119,84,30,94,29,162]},"announce":[],"urlList":[]}}